<svg width="76" height="45" viewBox="0 0 76 45" fill="none" xmlns="http://www.w3.org/2000/svg">
<path d="M7.68 13.43C8.68 13.43 9.44 13.55 9.96 13.79C10.48 14.01 10.94 14.26 11.34 14.54C11.58 14.68 11.77 14.79 11.91 14.87C12.07 14.93 12.22 14.96 12.36 14.96C12.56 14.96 12.7 14.85 12.78 14.63C12.88 14.41 12.96 14.08 13.02 13.64H13.71C13.69 13.98 13.66 14.39 13.62 14.87C13.6 15.33 13.58 15.95 13.56 16.73C13.56 17.49 13.56 18.5 13.56 19.76H12.87C12.81 18.8 12.6 17.88 12.24 17C11.88 16.12 11.35 15.4 10.65 14.84C9.97 14.28 9.07 14 7.95 14C6.89 14 6.01 14.32 5.31 14.96C4.63 15.6 4.29 16.44 4.29 17.48C4.29 18.38 4.52 19.14 4.98 19.76C5.44 20.36 6.05 20.91 6.81 21.41C7.59 21.89 8.43 22.41 9.33 22.97C10.37 23.61 11.29 24.25 12.09 24.89C12.91 25.51 13.55 26.2 14.01 26.96C14.49 27.72 14.73 28.64 14.73 29.72C14.73 31 14.44 32.06 13.86 32.9C13.28 33.74 12.51 34.37 11.55 34.79C10.59 35.21 9.53 35.42 8.37 35.42C7.31 35.42 6.47 35.3 5.85 35.06C5.23 34.82 4.7 34.57 4.26 34.31C3.82 34.03 3.48 33.89 3.24 33.89C3.04 33.89 2.89 34 2.79 34.22C2.71 34.44 2.64 34.77 2.58 35.21H1.89C1.93 34.79 1.95 34.3 1.95 33.74C1.97 33.16 1.98 32.41 1.98 31.49C2 30.57 2.01 29.41 2.01 28.01H2.7C2.78 29.21 3 30.33 3.36 31.37C3.74 32.41 4.31 33.25 5.07 33.89C5.85 34.51 6.88 34.82 8.16 34.82C8.82 34.82 9.44 34.69 10.02 34.43C10.62 34.15 11.11 33.72 11.49 33.14C11.87 32.54 12.06 31.77 12.06 30.83C12.06 30.01 11.86 29.3 11.46 28.7C11.08 28.08 10.54 27.51 9.84 26.99C9.14 26.45 8.32 25.9 7.38 25.34C6.44 24.76 5.56 24.17 4.74 23.57C3.92 22.97 3.26 22.28 2.76 21.5C2.28 20.7 2.04 19.74 2.04 18.62C2.04 17.44 2.3 16.47 2.82 15.71C3.36 14.93 4.06 14.36 4.92 14C5.78 13.62 6.7 13.43 7.68 13.43ZM21.3412 19.22V37.64C21.3412 38.5 21.5912 39.07 22.0912 39.35C22.6112 39.65 23.3212 39.8 24.2212 39.8V40.43C23.7812 40.41 23.1712 40.38 22.3912 40.34C21.6112 40.32 20.7812 40.31 19.9012 40.31C19.2812 40.31 18.6612 40.32 18.0412 40.34C17.4412 40.38 16.9812 40.41 16.6612 40.43V39.8C17.3812 39.8 17.8912 39.67 18.1912 39.41C18.4912 39.15 18.6412 38.66 18.6412 37.94V22.82C18.6412 21.92 18.4812 21.26 18.1612 20.84C17.8412 20.4 17.2412 20.18 16.3612 20.18V19.55C17.0012 19.61 17.6212 19.64 18.2212 19.64C18.8012 19.64 19.3512 19.61 19.8712 19.55C20.4112 19.47 20.9012 19.36 21.3412 19.22ZM26.1412 19.13C27.2012 19.13 28.1512 19.42 28.9912 20C29.8312 20.56 30.4912 21.39 30.9712 22.49C31.4712 23.59 31.7212 24.95 31.7212 26.57C31.7212 27.65 31.5912 28.72 31.3312 29.78C31.0712 30.82 30.6612 31.77 30.1012 32.63C29.5612 33.47 28.8512 34.15 27.9712 34.67C27.1112 35.17 26.0712 35.42 24.8512 35.42C23.9112 35.42 23.0912 35.2 22.3912 34.76C21.7112 34.32 21.2512 33.79 21.0112 33.17L21.3112 32.75C21.5912 33.31 21.9912 33.78 22.5112 34.16C23.0512 34.54 23.7212 34.73 24.5212 34.73C25.6412 34.73 26.5112 34.38 27.1312 33.68C27.7512 32.98 28.1812 32.05 28.4212 30.89C28.6812 29.71 28.8112 28.41 28.8112 26.99C28.8112 25.39 28.6812 24.08 28.4212 23.06C28.1612 22.04 27.7712 21.28 27.2512 20.78C26.7312 20.28 26.0912 20.03 25.3312 20.03C24.3512 20.03 23.4612 20.44 22.6612 21.26C21.8612 22.06 21.3512 23.28 21.1312 24.92L20.7712 24.5C20.9912 22.8 21.5912 21.48 22.5712 20.54C23.5712 19.6 24.7612 19.13 26.1412 19.13Z" fill="#E8A030"/>
<path d="M36.5928 34.46C37.0728 34.46 37.6228 34.16 38.2428 33.56C38.8628 32.94 39.4928 32.11 40.1328 31.07C40.7728 30.03 41.3628 28.85 41.9028 27.53C42.4428 26.21 42.8728 24.84 43.1928 23.42L42.6828 26.66C41.9228 28.78 41.1628 30.49 40.4028 31.79C39.6428 33.07 38.8728 34 38.0928 34.58C37.3128 35.14 36.5228 35.42 35.7228 35.42C34.7828 35.42 34.0728 35.08 33.5928 34.4C33.1328 33.72 32.9028 32.85 32.9028 31.79C32.9028 30.83 33.0628 29.79 33.3828 28.67C33.7028 27.53 34.1428 26.4 34.7028 25.28C35.2828 24.16 35.9428 23.14 36.6828 22.22C37.4228 21.3 38.2228 20.56 39.0828 20C39.9628 19.44 40.8528 19.16 41.7528 19.16C42.4528 19.16 42.9828 19.51 43.3428 20.21C43.7228 20.89 43.8028 21.85 43.5828 23.09L43.2528 23.27C43.3928 22.21 43.3228 21.36 43.0428 20.72C42.7628 20.06 42.3028 19.73 41.6628 19.73C41.1428 19.73 40.5928 19.99 40.0128 20.51C39.4528 21.01 38.9028 21.7 38.3628 22.58C37.8428 23.44 37.3628 24.41 36.9228 25.49C36.5028 26.57 36.1628 27.69 35.9028 28.85C35.6628 29.99 35.5428 31.09 35.5428 32.15C35.5428 33.01 35.6328 33.61 35.8128 33.95C36.0128 34.29 36.2728 34.46 36.5928 34.46ZM44.1528 19.58C44.6328 19.56 45.1128 19.52 45.5928 19.46C46.0728 19.4 46.5128 19.3 46.9128 19.16L43.1628 32.42C43.1228 32.6 43.0628 32.84 42.9828 33.14C42.9228 33.42 42.9228 33.68 42.9828 33.92C43.0628 34.16 43.2728 34.28 43.6128 34.28C44.0128 34.28 44.4028 34.06 44.7828 33.62C45.1628 33.18 45.5428 32.38 45.9228 31.22L46.2828 30.11H46.8528L46.1028 32.3C45.8228 33.1 45.4828 33.73 45.0828 34.19C44.7028 34.63 44.3028 34.94 43.8828 35.12C43.4628 35.32 43.0528 35.42 42.6528 35.42C41.8728 35.42 41.3228 35.16 41.0028 34.64C40.7428 34.18 40.6728 33.65 40.7928 33.05C40.9128 32.43 41.0528 31.81 41.2128 31.19L44.1528 19.58ZM51.4659 35H48.8559L52.4559 22.13C52.6559 21.45 52.7159 20.97 52.6359 20.69C52.5759 20.41 52.3759 20.27 52.0359 20.27C51.5959 20.27 51.1959 20.5 50.8359 20.96C50.4759 21.42 50.0959 22.21 49.6959 23.33L49.3059 24.44H48.7359L49.4859 22.25C49.7859 21.41 50.1359 20.77 50.5359 20.33C50.9559 19.89 51.3859 19.59 51.8259 19.43C52.2859 19.25 52.7159 19.16 53.1159 19.16C53.7159 19.16 54.1359 19.29 54.3759 19.55C54.6359 19.81 54.7759 20.15 54.7959 20.57C54.8359 20.99 54.8059 21.45 54.7059 21.95C54.6259 22.43 54.5259 22.9 54.4059 23.36L51.4659 35ZM59.1759 19.91C58.7159 19.91 58.2359 20.13 57.7359 20.57C57.2559 20.99 56.7559 21.61 56.2359 22.43C55.7359 23.23 55.2259 24.2 54.7059 25.34C54.2059 26.46 53.7059 27.71 53.2059 29.09C52.7259 30.47 52.2559 31.96 51.7959 33.56L52.5459 29.72C53.2059 27.76 53.8159 26.11 54.3759 24.77C54.9559 23.43 55.5259 22.35 56.0859 21.53C56.6459 20.69 57.2159 20.09 57.7959 19.73C58.3959 19.35 59.0259 19.16 59.6859 19.16C60.2459 19.16 60.6759 19.32 60.9759 19.64C61.2959 19.96 61.4559 20.37 61.4559 20.87C61.4559 21.27 61.3559 21.64 61.1559 21.98C60.9559 22.3 60.6959 22.56 60.3759 22.76C60.0759 22.94 59.7359 23.03 59.3559 23.03C59.0159 23.03 58.7259 22.94 58.4859 22.76C58.2659 22.56 58.1559 22.29 58.1559 21.95C58.1559 21.63 58.2159 21.35 58.3359 21.11C58.4559 20.85 58.6159 20.63 58.8159 20.45C59.0159 20.27 59.2459 20.13 59.5059 20.03C59.4659 19.99 59.4159 19.96 59.3559 19.94C59.3159 19.92 59.2559 19.91 59.1759 19.91ZM62.4494 35H59.8394L65.7794 14.99C65.9794 14.31 65.9494 13.81 65.6894 13.49C65.4494 13.17 64.8394 13.01 63.8594 13.01L64.0394 12.38C65.1394 12.36 66.1294 12.25 67.0094 12.05C67.8894 11.83 68.6994 11.53 69.4394 11.15L62.4494 35ZM70.1894 33.08C70.1094 33.52 70.1094 33.84 70.1894 34.04C70.2694 34.22 70.4694 34.31 70.7894 34.31C71.1894 34.31 71.5594 34.09 71.8994 33.65C72.2594 33.19 72.6294 32.39 73.0094 31.25L73.3694 30.14H73.9394L73.2194 32.33C72.9594 33.13 72.6394 33.76 72.2594 34.22C71.8994 34.66 71.4894 34.97 71.0294 35.15C70.5894 35.33 70.1294 35.42 69.6494 35.42C69.0094 35.42 68.4894 35.2 68.0894 34.76C67.6894 34.3 67.5994 33.57 67.8194 32.57L68.3594 29.99C68.5994 28.83 68.4694 27.98 67.9694 27.44C67.4894 26.88 66.4094 26.54 64.7294 26.42V26.3C65.4894 26.24 66.2594 26.24 67.0394 26.3C67.8394 26.36 68.5494 26.53 69.1694 26.81C69.7894 27.07 70.2594 27.47 70.5794 28.01C70.8994 28.53 70.9694 29.22 70.7894 30.08L70.1894 33.08ZM72.8294 19.79C72.5894 19.79 72.3794 19.83 72.1994 19.91C72.0394 19.99 71.8794 20.09 71.7194 20.21C71.3394 20.51 71.0194 20.92 70.7594 21.44C70.4994 21.94 70.2394 22.48 69.9794 23.06C69.7194 23.64 69.3994 24.19 69.0194 24.71C68.6394 25.21 68.1394 25.62 67.5194 25.94C66.8994 26.26 66.0894 26.41 65.0894 26.39L64.7894 26.42L64.8494 26.09C65.8294 26.03 66.6094 25.83 67.1894 25.49C67.7894 25.15 68.2594 24.73 68.5994 24.23C68.9594 23.73 69.2594 23.21 69.4994 22.67C69.7394 22.11 69.9894 21.58 70.2494 21.08C70.5094 20.58 70.8494 20.17 71.2694 19.85C71.6294 19.57 71.9494 19.39 72.2294 19.31C72.5294 19.21 72.8094 19.16 73.0694 19.16C73.7694 19.16 74.2494 19.34 74.5094 19.7C74.7694 20.04 74.8794 20.45 74.8394 20.93C74.8194 21.17 74.7494 21.44 74.6294 21.74C74.5094 22.04 74.3194 22.3 74.0594 22.52C73.8194 22.74 73.4994 22.85 73.0994 22.85C72.6594 22.85 72.3494 22.72 72.1694 22.46C71.9894 22.18 71.9094 21.88 71.9294 21.56C71.9494 21.28 72.0494 20.98 72.2294 20.66C72.4094 20.32 72.6294 20.03 72.8894 19.79C72.8694 19.79 72.8594 19.79 72.8594 19.79C72.8594 19.79 72.8494 19.79 72.8294 19.79Z" fill="#F5EDD8"/>
</svg>
